<svg version="1.1" id="Layer_1" xmlns="http://www.w3.org/2000/svg" x="0" y="0" viewBox="0 0 833 137.9" style="enable-background:new 0 0 833 137.9" xml:space="preserve"><path d="M2 29.1h18.9L56.1 93l34.4-63.9h18.9v107.5H88.6v-68L66 109.5c-1.1 2.3-2.7 4.3-4.7 5.9-1.6 1.2-3.5 1.8-5.5 1.8H50L22.7 68.6v68.1H2V29.1zm130.6 103.5c-2.8-2.7-4.3-6.5-4.1-10.4V29.1h82v18.4h-60.8v24.9h56.2v18.4h-56.2v27.3h60.8v18.4h-67.1c-4 .3-7.9-1.1-10.8-3.9zm118.7-85.1h-34.1V29.1h89.4v18.4h-34.1v89.1h-21.2V47.5zm114.3 64.1h-40.2l-9.5 25h-22.1l42.1-107.5h9.5c6.7 0 11.2 3.1 13.5 9.2l38.3 98.3H375l-9.4-25zm-34.5-17.8H360l-14.3-38.7h-.2l-14.4 38.7zm76.2-64.7H464c5.7-.1 11.4 1.1 16.6 3.6 4.7 2.3 8.6 5.8 11.2 10.3 2.7 4.6 4.1 9.9 4 15.3v14.3c.1 5.5-1.3 11-4.2 15.7-2.8 4.6-6.8 8.2-11.6 10.6-5.4 2.6-11.3 3.9-17.3 3.8h-34.3v33.9h-21.2l.1-107.5zm55.1 55.1c3.3.1 6.5-1.1 8.8-3.5 2.3-2.5 3.5-5.8 3.4-9.1V59.2c.2-3.1-.9-6.2-3-8.5-2.1-2.1-4.9-3.3-7.9-3.2h-35.2v36.7h33.9zm62.5 48.8c-5.7-3.2-10.3-7.9-13.4-13.6-3.3-6.2-4.9-13.2-4.8-20.3v-70H528v69.4c0 6.1 1.6 11.1 4.7 14.9 2.9 3.7 7.5 5.8 12.2 5.7h16.3c4.8.1 9.4-2 12.4-5.7 3.2-3.8 4.8-8.8 4.8-14.9V29.1h21.2v70.1c.1 7.1-1.5 14-4.8 20.3-3.1 5.8-7.8 10.5-13.5 13.6-6.2 3.3-13.1 5-20.1 4.8h-16.3c-7 .1-13.8-1.6-20-4.9zM618 29.1h18.9L672.1 93l34.4-63.9h18.9v107.5h-20.8v-68L682 109.5c-1.1 2.3-2.7 4.3-4.7 5.9-1.6 1.2-3.5 1.8-5.5 1.8H666l-27.3-48.5v68.1H618V29.1zm126.5 0h56.7c5.7-.1 11.4 1.1 16.6 3.6 4.7 2.3 8.6 5.8 11.2 10.3 2.7 4.6 4.1 9.9 4 15.3v14.3c.1 5.5-1.3 11-4.1 15.7-2.8 4.6-6.8 8.2-11.6 10.6-5.4 2.6-11.3 3.9-17.3 3.8h-34.3v33.9h-21.2V29.1zm55.1 55.1c3.3.1 6.5-1.1 8.8-3.5 2.3-2.5 3.5-5.8 3.4-9.1V59.2c.2-3.1-.9-6.2-3-8.5-2.1-2.1-4.9-3.3-7.9-3.2h-35.2v36.7h33.9z" style="opacity:.6"/><linearGradient id="SVGID_1_" gradientUnits="userSpaceOnUse" x1="-95.79" y1="561.42" x2="-94.909" y2="563.552" gradientTransform="matrix(830.9668 0 0 -108.7844 79676.813 61223.762)"><stop offset="0" style="stop-color:#ad6c35"/><stop offset=".011" style="stop-color:#b5753a"/><stop offset=".047" style="stop-color:#cc8f4b"/><stop offset=".084" style="stop-color:#dda256"/><stop offset=".122" style="stop-color:#e7ae5d"/><stop offset=".163" style="stop-color:#ebb260"/><stop offset=".429" style="stop-color:#ffedb2"/><stop offset=".534" style="stop-color:#f2c064"/><stop offset=".837" style="stop-color:#ffdc86"/><stop offset="1" style="stop-color:#c98531"/></linearGradient><path d="M0 0h18.9l35.2 63.9L88.5 0h18.9v107.5H86.6v-68L64.1 80.3c-1.1 2.3-2.7 4.3-4.7 5.9-1.6 1.2-3.5 1.8-5.5 1.8h-5.8L20.7 39.5v68.1H0V0zm130.6 103.5c-2.8-2.7-4.3-6.5-4.1-10.4V0h82v18.4h-60.8v24.9h56.2v18.4h-56.2V89h60.8v18.4h-67.1c-4 .3-7.9-1.1-10.8-3.9zm118.7-85.1h-34.1V0h89.4v18.4h-34.1v89.1h-21.2V18.4zm114.3 64.1h-40.2l-9.5 25h-22.1L333.8 0h9.5c6.7 0 11.2 3.1 13.5 9.2l38.3 98.3H373l-9.4-25zm-34.5-17.8H358L343.7 26h-.2l-14.4 38.7zM405.3 0H462c5.7-.1 11.4 1.1 16.6 3.6 4.7 2.3 8.6 5.8 11.2 10.3 2.7 4.6 4.1 9.9 4 15.3v14.3c.1 5.5-1.3 11-4.2 15.7-2.8 4.6-6.8 8.2-11.6 10.6-5.4 2.6-11.3 3.9-17.3 3.8h-34.3v33.9h-21.2L405.3 0zm55.1 55.2c3.3.1 6.5-1.1 8.8-3.5 2.3-2.5 3.5-5.8 3.4-9.1V30.1c.2-3.1-.9-6.2-3-8.5-2.1-2.1-4.9-3.3-7.9-3.2h-35.2v36.7l33.9.1zm62.5 48.7c-5.7-3.2-10.3-7.9-13.4-13.6-3.3-6.2-4.9-13.2-4.8-20.3V0H526v69.4c0 6.1 1.6 11.1 4.7 14.9 2.9 3.7 7.5 5.8 12.2 5.7h16.3c4.8.1 9.4-2 12.4-5.7 3.2-3.8 4.8-8.8 4.8-14.9V0h21.2v70.1c.1 7.1-1.5 14-4.8 20.3-3.1 5.8-7.8 10.5-13.5 13.6-6.2 3.3-13.1 5-20.1 4.8h-16.3c-7 .1-13.8-1.5-20-4.9zM616 0h18.9l35.2 63.9L704.5 0h18.9v107.5h-20.8v-68L680 80.4c-1.1 2.3-2.7 4.3-4.7 5.9-1.6 1.2-3.5 1.8-5.5 1.8H664l-27.3-48.5v68.1H616V0zm126.5 0h56.7c5.7-.1 11.4 1.1 16.6 3.6 4.7 2.3 8.6 5.8 11.2 10.3 2.7 4.6 4.1 9.9 4 15.3v14.3c.1 5.5-1.3 11-4.1 15.7-2.8 4.6-6.8 8.2-11.6 10.6-5.4 2.6-11.3 3.9-17.3 3.8h-34.3v33.9h-21.2V0zm55.1 55.2c3.3.1 6.5-1.1 8.8-3.5 2.3-2.5 3.5-5.8 3.4-9.1V30.1c.2-3.1-.9-6.2-3-8.5-2.1-2.1-4.9-3.3-7.9-3.2h-35.2v36.7l33.9.1z" style="fill:url(#SVGID_1_)"/></svg>