<svg version="1.0" xmlns="http://www.w3.org/2000/svg" width="346.667" height="346.667" viewBox="0 0 260 260"><path d="M0 130v130h44c24.2 0 44-.1 44-.3 0-.1-.9-2.7-2.1-5.7-1.4-3.6-2.1-7.7-2-12 .1-17.5 8.7-50.5 16.3-62.2l4-6.1-2-4.1c-1.5-3.1-1.9-5.3-1.5-8.8.8-6.9-.4-11.5-4.1-15.6-4.5-5.1-5.6-7.4-5.6-12.2v-4.2l-5.2 7.8c-4 5.9-6.4 8.4-9.8 10.2-5.9 3-10.7 7.8-12.9 12.7-2.3 5.1-7.1 9.3-16.2 14.1-4 2.1-9.9 6.3-13.2 9.3-5 4.7-5.8 5.8-5.2 8 .4 1.4 1 6.2 1.5 10.6.4 4.4 1.1 8.8 1.5 9.8.5 1.3.2 1.7-1.3 1.7-2.3 0-3.6-1.4-4.9-5.5-1.1-3.3-3-3.9-4.7-1.3-.8 1.4-.7 2 .8 3.1 1 .7 1.6 2 1.5 2.8-.2.7.2 2.4.9 3.6.8 1.4.9 2.4.2 2.8-.5.3-1 1.5-1 2.6 0 1.2-.7 1.9-1.9 1.9-1.1 0-2.3.4-2.6 1-.9 1.5-3.5 1.2-3.5-.4 0-.7-.7-2.7-1.5-4.2-.8-1.6-1.5-4.1-1.5-5.6s-.7-3.3-1.5-4.2c-1.2-1.1-1.3-2.1-.5-4.1.6-1.5 1.7-5.9 2.6-9.8.9-4.1 2.8-8.9 4.3-11.2 1.6-2.2 3.7-6.5 4.9-9.5 1.1-3 4.1-10 6.7-15.5 4.3-9.3 5.3-10.7 14.6-19.4 7-6.5 10.9-11.1 12.9-15 1.5-3.1 3.5-6.5 4.3-7.5 1.1-1.5 1.2-2.9.5-5.8-1.9-8.8 5.5-23.4 14.3-27.8 2.2-1.2 5.8-2 8.5-2 3.9 0 5.2-.6 9-3.9 2.6-2.3 8.6-5.7 14.5-8.2 10.6-4.5 12.5-6.2 11-10.1-.5-1.3-1.1-9.3-1.3-17.7-.1-8.4-.6-15.5-1-15.8-1.3-.8-.9-4.4.9-7.6 2.2-4 5.4-7.7 6.6-7.7.5 0 2-.9 3.3-1.9 1.3-1.1 3.6-1.8 4.9-1.6 1.4.1 2.5-.3 2.5-.9 0-.6.4-.5.9.3.5.7 1.4 1 2 .7.6-.4 1.1-.2 1.1.4 0 .6.6 1 1.3.9 2.7-.6 7.6 1.4 10.1 4 3.5 3.7 4.8 8.4 4 15.4-.6 4.8-.4 6.1 1.2 7.8 1.7 1.9 1.8 2.2.1 6.8-2.2 6.2-2.1 7.6.3 12.5 3.2 6.6 6.2 9.1 16.8 13.5 6.9 2.9 11.2 5.4 13.8 8.1 3.7 3.8 4.1 3.9 8.6 3.4 3.9-.5 5.4-.2 9.1 1.9 8.9 5.2 13.7 13.9 13.7 24.7 0 3.7.5 5.1 2.6 7.1 3.5 3.3 4.9 6.2 7.2 15.2 1.9 7.2 2.5 8.3 8.9 15 9 9.5 12.1 17.2 13.3 33.2.8 10.6 2.7 22.3 4.9 29.5 2.4 7.9 1.1 13.8-4.6 20.3-1.9 2.1-4.1 5.4-5 7.3-1.9 3.9-3.4 3.9-4.7.1-.7-1.9-.5-3.6.9-6.6 1.6-3.6 1.6-4.6.5-8.8-2.4-9-5-9.5-8.9-1.8-1.9 3.6-3.3 5.1-5 5.3-2.1.3-2.3.1-1.7-2 .4-1.2 1.1-4.3 1.6-6.8 1.2-6.1 2.9-11 5.2-14.2 4.5-6.5.4-15.6-11.7-25.7-8.3-7-10.1-9.8-11.9-18.3-.5-2.2-1.6-3-6.7-4.7-6.7-2.2-12.4-6.1-13.3-8.9-.5-1.5-1.9-.6-8.1 5.3-6.2 5.8-7.6 7.8-8.4 11.5-1.6 7.1-1.3 12.7 1 17.3 1.2 2.3 2.5 6.6 2.9 9.7.5 3 2.2 9.3 3.8 14 5.3 14.7 7.5 27.6 7.6 44.7l.1 15.3H260V0H0v130z"/><path d="M131.2 249.2c-1.8 5.1-3.2 9.6-3.2 10 0 .5 3.4.8 7.5.8s7.5-.3 7.5-.6c0-.9-7.2-17.8-8-18.7-.4-.4-2.1 3.4-3.8 8.5z"/></svg>